<?xml version="1.0" encoding="utf-8"?>
<svg xmlns="http://www.w3.org/2000/svg" viewBox="0 0 1856 2292">
  <g stroke-width="0"/>
  <path fill="#55a" d="M 718 275.4 C 718 275.6 718.8 276.4 719.8 277.1 C 721.3 278.4 721.4 278.3 720.1 276.7 C 718.8 275.1 718 274.6 718 275.4 M 364.2 323 C 364.2 324.4 364.4 324.9 364.7 324.2 C 364.9 323.6 364.9 322.4 364.7 321.7 C 364.4 321.1 364.2 321.6 364.2 323 M 740.3 330 C 740.3 333 740.5 334.3 740.7 332.7 C 740.9 331.2 740.9 328.8 740.7 327.2 C 740.5 325.7 740.3 327 740.3 330 M 364.2 331.5 C 364.2 333.1 364.4 333.7 364.7 332.7 C 364.9 331.8 364.9 330.4 364.7 329.7 C 364.4 329.1 364.2 329.8 364.2 331.5 M 364.3 370.5 C 364.3 372.7 364.5 373.5 364.7 372.2 C 364.9 371 364.9 369.2 364.7 368.2 C 364.4 367.3 364.2 368.3 364.3 370.5 M 740.2 376.5 C 740.2 378.1 740.4 378.7 740.7 377.7 C 740.9 376.8 740.9 375.4 740.7 374.7 C 740.4 374.1 740.2 374.8 740.2 376.5 M 364.2 381 C 364.2 382.9 364.4 383.7 364.7 382.7 C 364.9 381.8 364.9 380.2 364.7 379.2 C 364.4 378.3 364.2 379.1 364.2 381 M 364.2 389 C 364.2 390.4 364.4 390.9 364.7 390.2 C 364.9 389.6 364.9 388.4 364.7 387.7 C 364.4 387.1 364.2 387.6 364.2 389 M 364.2 433 C 364.2 434.9 364.4 435.7 364.7 434.7 C 364.9 433.8 364.9 432.2 364.7 431.2 C 364.4 430.3 364.2 431.1 364.2 433 M 364.1 438.6 C 364.1 439.7 364.4 440 364.7 439.2 C 365 438.5 364.9 437.6 364.6 437.3 C 364.3 436.9 364 437.5 364.1 438.6 M 740.2 443 C 740.2 444.4 740.4 444.9 740.7 444.2 C 740.9 443.6 740.9 442.4 740.7 441.7 C 740.4 441.1 740.2 441.6 740.2 443 M 364.3 457 C 364.3 459.5 364.5 460.5 364.7 459.2 C 364.9 458 364.9 456 364.7 454.7 C 364.5 453.5 364.3 454.5 364.3 457 M 364.3 467.5 C 364.3 470.8 364.5 472 364.7 470.2 C 364.9 468.4 364.9 465.7 364.7 464.2 C 364.5 462.7 364.3 464.2 364.3 467.5 M 364.3 482.5 C 364.3 486.3 364.5 487.8 364.7 485.7 C 364.9 483.7 364.9 480.5 364.7 478.7 C 364.5 477 364.3 478.6 364.3 482.5 M 364.3 493.5 C 364.3 495.7 364.5 496.5 364.7 495.2 C 364.9 494 364.9 492.2 364.7 491.2 C 364.4 490.3 364.2 491.3 364.3 493.5 M 364.1 502.6 C 364.1 503.7 364.4 504 364.7 503.2 C 365 502.5 364.9 501.6 364.6 501.3 C 364.3 500.9 364 501.5 364.1 502.6 M 364.2 508 C 364.2 509.4 364.4 509.9 364.7 509.2 C 364.9 508.6 364.9 507.4 364.7 506.7 C 364.4 506.1 364.2 506.6 364.2 508 M 364.4 546 C 364.4 553.4 364.5 556.5 364.7 552.7 C 364.9 549 364.9 543 364.7 539.2 C 364.5 535.5 364.4 538.6 364.4 546 M 364.5 938.5 C 364.5 1146.9 364.6 1232.4 364.7 1128.3 C 364.9 1024.3 364.9 853.7 364.7 749.3 C 364.6 644.9 364.5 730 364.5 938.5 M 740.2 585 C 740.2 586.4 740.4 586.9 740.7 586.2 C 740.9 585.6 740.9 584.4 740.7 583.7 C 740.4 583.1 740.2 583.6 740.2 585 M 740.4 600 C 740.4 605.8 740.5 608.1 740.7 605.2 C 740.9 602.4 740.9 597.6 740.7 594.7 C 740.5 591.9 740.4 594.2 740.4 600 M 740.1 655.6 C 740.1 656.7 740.4 657 740.7 656.2 C 741 655.5 740.9 654.6 740.6 654.3 C 740.3 653.9 740 654.5 740.1 655.6 M 740.2 691 C 740.2 692.4 740.4 692.9 740.7 692.2 C 740.9 691.6 740.9 690.4 740.7 689.7 C 740.4 689.1 740.2 689.6 740.2 691 M 740.3 700 C 740.3 702.5 740.5 703.5 740.7 702.2 C 740.9 701 740.9 699 740.7 697.7 C 740.5 696.5 740.3 697.5 740.3 700 M 740.2 730 C 740.2 731.4 740.4 731.9 740.7 731.2 C 740.9 730.6 740.9 729.4 740.7 728.7 C 740.4 728.1 740.2 728.6 740.2 730 M 1247.8 748.7 C 1248.4 748.9 1249.6 748.9 1250.3 748.7 C 1250.9 748.4 1250.4 748.2 1249 748.2 C 1247.6 748.2 1247.1 748.4 1247.8 748.7 M 1513.8 748.7 C 1514.5 749 1515.4 748.9 1515.7 748.6 C 1516.1 748.3 1515.5 748 1514.4 748.1 C 1513.3 748.1 1513 748.4 1513.8 748.7 M 740.4 766.5 C 740.4 773.6 740.5 776.4 740.7 772.7 C 740.9 769 740.9 763.1 740.7 759.7 C 740.5 756.3 740.4 759.3 740.4 766.5 M 1553 765.4 C 1553 765.6 1553.8 766.4 1554.8 767.1 C 1556.3 768.4 1556.4 768.3 1555.1 766.7 C 1553.8 765.1 1553 764.6 1553 765.4 M 740.1 793.6 C 740.1 794.7 740.4 795 740.7 794.2 C 741 793.5 740.9 792.6 740.6 792.3 C 740.3 791.9 740 792.5 740.1 793.6 M 740.1 798.6 C 740.1 799.7 740.4 800 740.7 799.2 C 741 798.5 740.9 797.6 740.6 797.3 C 740.3 796.9 740 797.5 740.1 798.6 M 740.4 816.5 C 740.4 825.3 740.6 828.8 740.7 824.2 C 740.9 819.6 740.9 812.4 740.7 808.2 C 740.6 804 740.4 807.7 740.4 816.5 M 740.2 842.5 C 740.2 844.1 740.4 844.7 740.7 843.7 C 740.9 842.8 740.9 841.4 740.7 840.7 C 740.4 840.1 740.2 840.8 740.2 842.5 M 740.4 858.5 C 740.4 865.6 740.5 868.4 740.7 864.7 C 740.9 861 740.9 855.1 740.7 851.7 C 740.5 848.3 740.4 851.3 740.4 858.5 M 740.3 881.5 C 740.3 883.7 740.5 884.5 740.7 883.2 C 740.9 882 740.9 880.2 740.7 879.2 C 740.4 878.3 740.2 879.3 740.3 881.5 M 740.3 890 C 740.3 892.5 740.5 893.5 740.7 892.2 C 740.9 891 740.9 889 740.7 887.7 C 740.5 886.5 740.3 887.5 740.3 890 M 740.2 929.5 C 740.2 931.1 740.4 931.7 740.7 930.7 C 740.9 929.8 740.9 928.4 740.7 927.7 C 740.4 927.1 740.2 927.8 740.2 929.5 M 740.1 937.6 C 740.1 938.7 740.4 939 740.7 938.2 C 741 937.5 740.9 936.6 740.6 936.3 C 740.3 935.9 740 936.5 740.1 937.6 M 740.1 951.6 C 740.1 952.7 740.4 953 740.7 952.2 C 741 951.5 740.9 950.6 740.6 950.3 C 740.3 949.9 740 950.5 740.1 951.6 M 1464.9 954.7 C 1463.6 956.3 1463.7 956.4 1465.3 955.1 C 1466.2 954.4 1467 953.6 1467 953.4 C 1467 952.6 1466.2 953.1 1464.9 954.7 M 740.3 971.5 C 740.3 974.8 740.5 976 740.7 974.2 C 740.9 972.4 740.9 969.7 740.7 968.2 C 740.5 966.7 740.3 968.2 740.3 971.5 M 740.1 979.6 C 740.1 980.7 740.4 981 740.7 980.2 C 741 979.5 740.9 978.6 740.6 978.3 C 740.3 977.9 740 978.5 740.1 979.6 M 740.4 997 C 740.4 1005.5 740.6 1009 740.7 1004.7 C 740.9 1000.5 740.9 993.5 740.7 989.2 C 740.6 985 740.4 988.5 740.4 997 M 740.2 1023 C 740.2 1024.4 740.4 1024.9 740.7 1024.2 C 740.9 1023.6 740.9 1022.4 740.7 1021.7 C 740.4 1021.1 740.2 1021.6 740.2 1023 M 740.4 1039.5 C 740.4 1047.2 740.6 1050.2 740.7 1046.2 C 740.9 1042.2 740.9 1035.9 740.7 1032.2 C 740.5 1028.5 740.4 1031.8 740.4 1039.5 M 740.2 1065.5 C 740.2 1067.1 740.4 1067.7 740.7 1066.7 C 740.9 1065.8 740.9 1064.4 740.7 1063.7 C 740.4 1063.1 740.2 1063.8 740.2 1065.5 M 740.2 1080.5 C 740.2 1082.1 740.4 1082.7 740.7 1081.7 C 740.9 1080.8 740.9 1079.4 740.7 1078.7 C 740.4 1078.1 740.2 1078.8 740.2 1080.5 M 740.3 1094.5 C 740.3 1097.2 740.5 1098.3 740.7 1096.7 C 740.9 1095.2 740.9 1093 740.7 1091.7 C 740.5 1090.5 740.3 1091.7 740.3 1094.5 M 1331.9 1102.7 C 1330.6 1104.3 1330.7 1104.4 1332.3 1103.1 C 1333.2 1102.4 1334 1101.6 1334 1101.4 C 1334 1100.6 1333.2 1101.1 1331.9 1102.7 M 740.3 1111.5 C 740.3 1113.7 740.5 1114.5 740.7 1113.2 C 740.9 1112 740.9 1110.2 740.7 1109.2 C 740.4 1108.3 740.2 1109.3 740.3 1111.5 M 740.2 1130 C 740.2 1131.9 740.4 1132.7 740.7 1131.7 C 740.9 1130.8 740.9 1129.2 740.7 1128.2 C 740.4 1127.3 740.2 1128.1 740.2 1130 M 740.4 1183.5 C 740.4 1200.5 740.6 1207.7 740.7 1199.3 C 740.9 1191 740.9 1177 740.7 1168.3 C 740.6 1159.6 740.4 1166.4 740.4 1183.5 M 839.2 1214 C 839.2 1215.4 839.4 1215.9 839.7 1215.2 C 839.9 1214.6 839.9 1213.4 839.7 1212.7 C 839.4 1212.1 839.2 1212.6 839.2 1214 M 740.4 1224 C 740.4 1229.2 740.5 1231.4 740.7 1228.7 C 740.9 1226.1 740.9 1221.9 740.7 1219.2 C 740.5 1216.6 740.4 1218.8 740.4 1224 M 740.3 1239 C 740.3 1242 740.5 1243.3 740.7 1241.7 C 740.9 1240.2 740.9 1237.8 740.7 1236.2 C 740.5 1234.7 740.3 1236 740.3 1239 M 740.3 1256 C 740.3 1258.5 740.5 1259.5 740.7 1258.2 C 740.9 1257 740.9 1255 740.7 1253.7 C 740.5 1252.5 740.3 1253.5 740.3 1256 M 740.1 1271.6 C 740.1 1272.7 740.4 1273 740.7 1272.2 C 741 1271.5 740.9 1270.6 740.6 1270.3 C 740.3 1269.9 740 1270.5 740.1 1271.6 M 740.2 1278 C 740.2 1279.9 740.4 1280.7 740.7 1279.7 C 740.9 1278.8 740.9 1277.2 740.7 1276.2 C 740.4 1275.3 740.2 1276.1 740.2 1278 M 740.2 1284.5 C 740.2 1286.1 740.4 1286.7 740.7 1285.7 C 740.9 1284.8 740.9 1283.4 740.7 1282.7 C 740.4 1282.1 740.2 1282.8 740.2 1284.5 M 740.2 1290 C 740.2 1291.4 740.4 1291.9 740.7 1291.2 C 740.9 1290.6 740.9 1289.4 740.7 1288.7 C 740.4 1288.1 740.2 1288.6 740.2 1290 M 740.5 1351 C 740.5 1383.2 740.6 1396.3 740.7 1380.2 C 740.9 1364.2 740.9 1337.8 740.7 1321.7 C 740.6 1305.7 740.5 1318.8 740.5 1351 M 1149.4 1304.2 L 1147.5 1306.5 L 1149.8 1304.6 C 1151.9 1302.8 1152.5 1302 1151.7 1302 C 1151.5 1302 1150.5 1303 1149.4 1304.2 M 364.5 1370.5 C 364.5 1399.6 364.6 1411.4 364.7 1396.7 C 364.9 1381.9 364.9 1358.1 364.7 1343.7 C 364.6 1329.3 364.5 1341.3 364.5 1370.5 M 1088.9 1367.7 L 1086.5 1370.5 L 1089.3 1368.1 C 1090.8 1366.7 1092 1365.5 1092 1365.3 C 1092 1364.5 1091.2 1365.2 1088.9 1367.7 M 1064.4 1393.2 L 1061.5 1396.5 L 1064.8 1393.6 C 1067.8 1390.8 1068.5 1390 1067.7 1390 C 1067.5 1390 1066.1 1391.5 1064.4 1393.2 M 1043.9 1414.7 C 1042.6 1416.3 1042.7 1416.4 1044.3 1415.1 C 1045.2 1414.4 1046 1413.6 1046 1413.4 C 1046 1412.6 1045.2 1413.1 1043.9 1414.7 M 364.5 1716 C 364.5 1876.9 364.6 1942.7 364.7 1862.2 C 364.9 1781.8 364.9 1650.2 364.7 1569.7 C 364.6 1489.3 364.5 1555.1 364.5 1716 M 1018.9 1440.7 L 1016.5 1443.5 L 1019.3 1441.1 C 1020.8 1439.7 1022 1438.5 1022 1438.3 C 1022 1437.5 1021.2 1438.2 1018.9 1440.7 M 740.3 1447.5 C 740.3 1451.3 740.5 1452.8 740.7 1450.7 C 740.9 1448.7 740.9 1445.5 740.7 1443.7 C 740.5 1442 740.3 1443.6 740.3 1447.5 M 740.4 1490.5 C 740.4 1509.2 740.6 1516.7 740.7 1507.2 C 740.9 1497.7 740.9 1482.4 740.7 1473.2 C 740.6 1464 740.4 1471.8 740.4 1490.5 M 995.4 1465.2 L 993.5 1467.5 L 995.8 1465.6 C 997.9 1463.8 998.5 1463 997.7 1463 C 997.5 1463 996.5 1464 995.4 1465.2 M 1105.9 1482.7 C 1104.6 1484.3 1104.7 1484.4 1106.3 1483.1 C 1107.2 1482.4 1108 1481.6 1108 1481.4 C 1108 1480.6 1107.2 1481.1 1105.9 1482.7 M 970.4 1491.2 L 968.5 1493.5 L 970.8 1491.6 C 972.9 1489.8 973.5 1489 972.7 1489 C 972.5 1489 971.5 1490 970.4 1491.2 M 740.1 1526.6 C 740.1 1527.7 740.4 1528 740.7 1527.2 C 741 1526.5 740.9 1525.6 740.6 1525.3 C 740.3 1524.9 740 1525.5 740.1 1526.6 M 740.1 1538.6 C 740.1 1539.7 740.4 1540 740.7 1539.2 C 741 1538.5 740.9 1537.6 740.6 1537.3 C 740.3 1536.9 740 1537.5 740.1 1538.6 M 921.9 1541.7 C 920.6 1543.3 920.7 1543.4 922.3 1542.1 C 923.2 1541.4 924 1540.6 924 1540.4 C 924 1539.6 923.2 1540.1 921.9 1541.7 M 740.4 1567 C 740.4 1575 740.6 1578.2 740.7 1574.2 C 740.9 1570.3 740.9 1563.7 740.7 1559.7 C 740.6 1555.8 740.4 1559 740.4 1567 M 884.3 1559.7 C 885.2 1559.9 886.8 1559.9 887.8 1559.7 C 888.7 1559.4 887.9 1559.2 886 1559.2 C 884.1 1559.2 883.3 1559.4 884.3 1559.7 M 740.2 1585 C 740.2 1586.9 740.4 1587.7 740.7 1586.7 C 740.9 1585.8 740.9 1584.2 740.7 1583.2 C 740.4 1582.3 740.2 1583.1 740.2 1585 M 740.3 1595 C 740.3 1598 740.5 1599.3 740.7 1597.7 C 740.9 1596.2 740.9 1593.8 740.7 1592.2 C 740.5 1590.7 740.3 1592 740.3 1595 M 740.1 1602.6 C 740.1 1603.7 740.4 1604 740.7 1603.2 C 741 1602.5 740.9 1601.6 740.6 1601.3 C 740.3 1600.9 740 1601.5 740.1 1602.6 M 740.1 1612.6 C 740.1 1613.7 740.4 1614 740.7 1613.2 C 741 1612.5 740.9 1611.6 740.6 1611.3 C 740.3 1610.9 740 1611.5 740.1 1612.6 M 740.1 1620.6 C 740.1 1621.7 740.4 1622 740.7 1621.2 C 741 1620.5 740.9 1619.6 740.6 1619.3 C 740.3 1618.9 740 1619.5 740.1 1620.6 M 740.1 1635.6 C 740.1 1636.7 740.4 1637 740.7 1636.2 C 741 1635.5 740.9 1634.6 740.6 1634.3 C 740.3 1633.9 740 1634.5 740.1 1635.6 M 740.2 1652 C 740.2 1653.4 740.4 1653.9 740.7 1653.2 C 740.9 1652.6 740.9 1651.4 740.7 1650.7 C 740.4 1650.1 740.2 1650.6 740.2 1652 M 740.2 1659 C 740.2 1660.4 740.4 1660.9 740.7 1660.2 C 740.9 1659.6 740.9 1658.4 740.7 1657.7 C 740.4 1657.1 740.2 1657.6 740.2 1659 M 740.1 1701.6 C 740.1 1702.7 740.4 1703 740.7 1702.2 C 741 1701.5 740.9 1700.6 740.6 1700.3 C 740.3 1699.9 740 1700.5 740.1 1701.6 M 740.4 1714 C 740.4 1719.2 740.5 1721.4 740.7 1718.7 C 740.9 1716.1 740.9 1711.9 740.7 1709.2 C 740.5 1706.6 740.4 1708.8 740.4 1714 M 740.1 1811.6 C 740.1 1812.7 740.4 1813 740.7 1812.2 C 741 1811.5 740.9 1810.6 740.6 1810.3 C 740.3 1809.9 740 1810.5 740.1 1811.6 M 364.1 2010.6 C 364.1 2011.7 364.4 2012 364.7 2011.2 C 365 2010.5 364.9 2009.6 364.6 2009.3 C 364.3 2008.9 364 2009.5 364.1 2010.6 M 740.1 2010.6 C 740.1 2011.7 740.4 2012 740.7 2011.2 C 741 2010.5 740.9 2009.6 740.6 2009.3 C 740.3 2008.9 740 2009.5 740.1 2010.6 M 1200 2051.4 C 1200 2051.6 1200.8 2052.4 1201.8 2053.1 C 1203.3 2054.4 1203.4 2054.3 1202.1 2052.7 C 1200.8 2051.1 1200 2050.6 1200 2051.4 M 1553.8 2081.7 C 1554.5 2082 1555.4 2081.9 1555.7 2081.6 C 1556.1 2081.3 1555.5 2081 1554.4 2081.1 C 1553.3 2081.1 1553 2081.4 1553.8 2081.7"/>
  <path fill="#5580aa" d="M 384.4 277.2 L 382.5 279.5 L 384.8 277.6 C 386.9 275.8 387.5 275 386.7 275 C 386.5 275 385.5 276 384.4 277.2 M 728 290 C 727.1 290.6 727 291 727.7 291 C 728.3 291 729.2 290.5 729.5 290 C 730.3 288.8 729.9 288.8 728 290 M 364.4 350.5 C 364.4 359.8 364.6 363.8 364.7 359.3 C 364.9 354.8 364.9 347.1 364.7 342.3 C 364.6 337.5 364.4 341.1 364.4 350.5 M 740.4 353 C 740.4 363.2 740.6 367.3 740.7 362.2 C 740.9 357.2 740.9 348.8 740.7 343.7 C 740.6 338.7 740.4 342.8 740.4 353 M 364.2 376 C 364.2 377.4 364.4 377.9 364.7 377.2 C 364.9 376.6 364.9 375.4 364.7 374.7 C 364.4 374.1 364.2 374.6 364.2 376 M 740.4 392.5 C 740.4 398.5 740.5 400.9 740.7 397.7 C 740.9 394.5 740.9 389.6 740.7 386.7 C 740.5 383.8 740.4 386.4 740.4 392.5 M 364.1 385.6 C 364.1 386.7 364.4 387 364.7 386.2 C 365 385.5 364.9 384.6 364.6 384.3 C 364.3 383.9 364 384.5 364.1 385.6 M 364.4 404.5 C 364.4 412.2 364.6 415.2 364.7 411.2 C 364.9 407.2 364.9 400.9 364.7 397.2 C 364.5 393.5 364.4 396.8 364.4 404.5 M 740.4 424 C 740.4 432 740.6 435.2 740.7 431.2 C 740.9 427.3 740.9 420.7 740.7 416.7 C 740.6 412.8 740.4 416 740.4 424 M 364.2 427 C 364.2 428.9 364.4 429.7 364.7 428.7 C 364.9 427.8 364.9 426.2 364.7 425.2 C 364.4 424.3 364.2 425.1 364.2 427 M 364.2 442.5 C 364.2 444.1 364.4 444.7 364.7 443.7 C 364.9 442.8 364.9 441.4 364.7 440.7 C 364.4 440.1 364.2 440.8 364.2 442.5 M 740.2 447.5 C 740.2 449.1 740.4 449.7 740.7 448.7 C 740.9 447.8 740.9 446.4 740.7 445.7 C 740.4 445.1 740.2 445.8 740.2 447.5 M 364.3 449.5 C 364.3 451.7 364.5 452.5 364.7 451.2 C 364.9 450 364.9 448.2 364.7 447.2 C 364.4 446.3 364.2 447.3 364.3 449.5 M 740.2 454 C 740.2 455.4 740.4 455.9 740.7 455.2 C 740.9 454.6 740.9 453.4 740.7 452.7 C 740.4 452.1 740.2 452.6 740.2 454 M 740.4 486.5 C 740.4 503 740.6 509.9 740.7 501.8 C 740.9 493.7 740.9 480.2 740.7 471.8 C 740.6 463.4 740.4 470 740.4 486.5 M 364.2 512 C 364.2 513.4 364.4 513.9 364.7 513.2 C 364.9 512.6 364.9 511.4 364.7 510.7 C 364.4 510.1 364.2 510.6 364.2 512 M 364.3 523 C 364.3 526 364.5 527.3 364.7 525.7 C 364.9 524.2 364.9 521.8 364.7 520.2 C 364.5 518.7 364.3 520 364.3 523 M 740.3 527 C 740.3 531.1 740.5 532.8 740.7 530.7 C 740.9 528.7 740.9 525.3 740.7 523.2 C 740.5 521.2 740.3 522.9 740.3 527 M 364.1 531.6 C 364.1 532.7 364.4 533 364.7 532.2 C 365 531.5 364.9 530.6 364.6 530.3 C 364.3 529.9 364 530.5 364.1 531.6 M 740.3 543 C 740.3 547.7 740.5 549.6 740.7 547.2 C 740.9 544.9 740.9 541.1 740.7 538.7 C 740.5 536.4 740.3 538.3 740.3 543 M 740.3 560 C 740.3 564.7 740.5 566.6 740.7 564.2 C 740.9 561.9 740.9 558.1 740.7 555.7 C 740.5 553.4 740.3 555.3 740.3 560 M 740.3 575 C 740.3 578 740.5 579.3 740.7 577.7 C 740.9 576.2 740.9 573.8 740.7 572.2 C 740.5 570.7 740.3 572 740.3 575 M 740.3 617.5 C 740.3 620.8 740.5 622 740.7 620.2 C 740.9 618.4 740.9 615.7 740.7 614.2 C 740.5 612.7 740.3 614.2 740.3 617.5 M 740.2 626 C 740.2 627.4 740.4 627.9 740.7 627.2 C 740.9 626.6 740.9 625.4 740.7 624.7 C 740.4 624.1 740.2 624.6 740.2 626 M 740.1 630.6 C 740.1 631.7 740.4 632 740.7 631.2 C 741 630.5 740.9 629.6 740.6 629.3 C 740.3 628.9 740 629.5 740.1 630.6 M 740.1 634.6 C 740.1 635.7 740.4 636 740.7 635.2 C 741 634.5 740.9 633.6 740.6 633.3 C 740.3 632.9 740 633.5 740.1 634.6 M 740.4 645.5 C 740.4 650.4 740.5 652.6 740.7 650.3 C 740.9 648 740.9 643.9 740.7 641.3 C 740.5 638.7 740.4 640.5 740.4 645.5 M 740.3 671 C 740.3 675.1 740.5 676.8 740.7 674.7 C 740.9 672.7 740.9 669.3 740.7 667.2 C 740.5 665.2 740.3 666.9 740.3 671 M 740.3 684.5 C 740.3 687.2 740.5 688.3 740.7 686.7 C 740.9 685.2 740.9 683 740.7 681.7 C 740.5 680.5 740.3 681.7 740.3 684.5 M 740.4 716 C 740.4 722.9 740.5 725.7 740.7 722.2 C 740.9 718.8 740.9 713.2 740.7 709.7 C 740.5 706.3 740.4 709.1 740.4 716 M 740.2 736.5 C 740.2 738.1 740.4 738.7 740.7 737.7 C 740.9 736.8 740.9 735.4 740.7 734.7 C 740.4 734.1 740.2 734.8 740.2 736.5 M 740.3 748.5 C 740.3 751.8 740.5 753 740.7 751.2 C 740.9 749.4 740.9 746.7 740.7 745.2 C 740.5 743.7 740.3 745.2 740.3 748.5 M 1273.8 748.7 C 1286.6 748.9 1307.3 748.9 1319.8 748.7 C 1332.3 748.6 1321.8 748.5 1296.5 748.5 C 1271.2 748.5 1261 748.6 1273.8 748.7 M 1346.8 748.7 C 1349.1 748.9 1352.9 748.9 1355.3 748.7 C 1357.6 748.5 1355.7 748.3 1351 748.3 C 1346.3 748.3 1344.4 748.5 1346.8 748.7 M 1377.8 748.7 C 1387.8 748.9 1404.2 748.9 1414.3 748.7 C 1424.3 748.6 1416.1 748.5 1396 748.5 C 1375.9 748.5 1367.7 748.6 1377.8 748.7 M 1452.8 748.7 C 1463.9 748.9 1482.1 748.9 1493.3 748.7 C 1504.4 748.6 1495.3 748.5 1473 748.5 C 1450.7 748.5 1441.6 748.6 1452.8 748.7 M 1547.4 760.7 C 1547.7 761.3 1547.6 762.1 1547.1 762.5 C 1545.6 763.3 1546.9 766 1548.8 766 C 1549.6 766 1550.1 766.3 1549.7 766.6 C 1549.4 767 1550.6 768.9 1552.5 770.9 C 1554.4 772.9 1556 775.1 1556 775.7 C 1556 776.4 1556.6 777 1557.4 777 C 1559.3 777 1560.7 774.7 1559.2 774.2 C 1558.5 774 1558 773.3 1558 772.5 C 1558 771.8 1555.9 769.3 1553.3 766.9 C 1550.6 764.5 1548.5 762.2 1548.5 761.8 C 1548.5 761.5 1548.1 760.8 1547.6 760.3 C 1547.1 759.9 1547 760 1547.4 760.7 M 740.2 781 C 740.2 782.4 740.4 782.9 740.7 782.2 C 740.9 781.6 740.9 780.4 740.7 779.7 C 740.4 779.1 740.2 779.6 740.2 781 M 740.2 789 C 740.2 790.9 740.4 791.7 740.7 790.7 C 740.9 789.8 740.9 788.2 740.7 787.2 C 740.4 786.3 740.2 787.1 740.2 789 M 1572.2 811.5 C 1572.2 813.1 1572.4 813.7 1572.7 812.7 C 1572.9 811.8 1572.9 810.4 1572.7 809.7 C 1572.4 809.1 1572.2 809.8 1572.2 811.5 M 740.2 834.5 C 740.2 836.1 740.4 836.7 740.7 835.7 C 740.9 834.8 740.9 833.4 740.7 832.7 C 740.4 832.1 740.2 832.8 740.2 834.5 M 1555.4 848.7 C 1555.9 849.6 1555.4 849.9 1553.8 849.7 C 1552.4 849.6 1551.6 850 1551.7 850.7 C 1551.9 851.5 1551.3 851.7 1550.3 851.3 C 1549.2 850.9 1548.9 851 1549.4 851.8 C 1549.8 852.5 1549.7 853 1549.3 853 C 1548 853 1548.3 857.7 1549.7 859.1 C 1550.7 860.1 1551.1 859.8 1552 857.9 C 1552.5 856.6 1554 854.3 1555.2 852.7 C 1557 850.5 1557.2 849.8 1556.1 848.7 C 1555 847.8 1554.8 847.8 1555.4 848.7 M 740.2 873.5 C 740.2 875.1 740.4 875.7 740.7 874.7 C 740.9 873.8 740.9 872.4 740.7 871.7 C 740.4 871.1 740.2 871.8 740.2 873.5 M 740.2 896.5 C 740.2 898.1 740.4 898.7 740.7 897.7 C 740.9 896.8 740.9 895.4 740.7 894.7 C 740.4 894.1 740.2 894.8 740.2 896.5 M 740.4 913.5 C 740.4 921.2 740.6 924.2 740.7 920.2 C 740.9 916.2 740.9 909.9 740.7 906.2 C 740.5 902.5 740.4 905.8 740.4 913.5 M 740.2 934 C 740.2 935.4 740.4 935.9 740.7 935.2 C 740.9 934.6 740.9 933.4 740.7 932.7 C 740.4 932.1 740.2 932.6 740.2 934 M 740.3 944.5 C 740.3 947.8 740.5 949 740.7 947.2 C 740.9 945.4 740.9 942.7 740.7 941.2 C 740.5 939.7 740.3 941.2 740.3 944.5 M 740.2 955 C 740.2 956.4 740.4 956.9 740.7 956.2 C 740.9 955.6 740.9 954.4 740.7 953.7 C 740.4 953.1 740.2 953.6 740.2 955 M 740.3 962 C 740.3 964.5 740.5 965.5 740.7 964.2 C 740.9 963 740.9 961 740.7 959.7 C 740.5 958.5 740.3 959.5 740.3 962 M 740.1 1015.6 C 740.1 1016.7 740.4 1017 740.7 1016.2 C 741 1015.5 740.9 1014.6 740.6 1014.3 C 740.3 1013.9 740 1014.5 740.1 1015.6 M 740.1 1019.6 C 740.1 1020.7 740.4 1021 740.7 1020.2 C 741 1019.5 740.9 1018.6 740.6 1018.3 C 740.3 1017.9 740 1018.5 740.1 1019.6 M 740.2 1055 C 740.2 1056.4 740.4 1056.9 740.7 1056.2 C 740.9 1055.6 740.9 1054.4 740.7 1053.7 C 740.4 1053.1 740.2 1053.6 740.2 1055 M 740.3 1074.5 C 740.3 1076.7 740.5 1077.5 740.7 1076.2 C 740.9 1075 740.9 1073.2 740.7 1072.2 C 740.4 1071.3 740.2 1072.3 740.3 1074.5 M 740.3 1086.5 C 740.3 1088.7 740.5 1089.5 740.7 1088.2 C 740.9 1087 740.9 1085.2 740.7 1084.2 C 740.4 1083.3 740.2 1084.3 740.3 1086.5 M 740.2 1101 C 740.2 1102.4 740.4 1102.9 740.7 1102.2 C 740.9 1101.6 740.9 1100.4 740.7 1099.7 C 740.4 1099.1 740.2 1099.6 740.2 1101 M 740.3 1123 C 740.3 1125.5 740.5 1126.5 740.7 1125.2 C 740.9 1124 740.9 1122 740.7 1120.7 C 740.5 1119.5 740.3 1120.5 740.3 1123 M 740.3 1143.5 C 740.3 1147.9 740.5 1149.6 740.7 1147.2 C 740.9 1144.9 740.9 1141.3 740.7 1139.2 C 740.5 1137.2 740.3 1139.1 740.3 1143.5 M 839.1 1217.6 C 839.1 1218.7 839.4 1219 839.7 1218.2 C 840 1217.5 839.9 1216.6 839.6 1216.3 C 839.3 1215.9 839 1216.5 839.1 1217.6 M 839.3 1223.5 C 839.3 1225.7 839.5 1226.5 839.7 1225.2 C 839.9 1224 839.9 1222.2 839.7 1221.2 C 839.4 1220.3 839.2 1221.3 839.3 1223.5 M 839.2 1231.5 C 839.2 1233.1 839.4 1233.7 839.7 1232.7 C 839.9 1231.8 839.9 1230.4 839.7 1229.7 C 839.4 1229.1 839.2 1229.8 839.2 1231.5 M 839.2 1237.5 C 839.2 1239.1 839.4 1239.7 839.7 1238.7 C 839.9 1237.8 839.9 1236.4 839.7 1235.7 C 839.4 1235.1 839.2 1235.8 839.2 1237.5 M 740.2 1246.5 C 740.2 1248.1 740.4 1248.7 740.7 1247.7 C 740.9 1246.8 740.9 1245.4 740.7 1244.7 C 740.4 1244.1 740.2 1244.8 740.2 1246.5 M 740.1 1264.6 C 740.1 1265.7 740.4 1266 740.7 1265.2 C 741 1264.5 740.9 1263.6 740.6 1263.3 C 740.3 1262.9 740 1263.5 740.1 1264.6 M 740.1 1268.6 C 740.1 1269.7 740.4 1270 740.7 1269.2 C 741 1268.5 740.9 1267.6 740.6 1267.3 C 740.3 1266.9 740 1267.5 740.1 1268.6 M 839.2 1278 C 839.2 1279.9 839.4 1280.7 839.7 1279.7 C 839.9 1278.8 839.9 1277.2 839.7 1276.2 C 839.4 1275.3 839.2 1276.1 839.2 1278 M 839.3 1289.5 C 839.3 1293.3 839.5 1294.8 839.7 1292.7 C 839.9 1290.7 839.9 1287.5 839.7 1285.7 C 839.5 1284 839.3 1285.6 839.3 1289.5 M 1145.4 1308.2 L 1143.5 1310.5 L 1145.8 1308.6 C 1147.9 1306.8 1148.5 1306 1147.7 1306 C 1147.5 1306 1146.5 1307 1145.4 1308.2 M 839.2 1311 C 839.2 1312.4 839.4 1312.9 839.7 1312.2 C 839.9 1311.6 839.9 1310.4 839.7 1309.7 C 839.4 1309.1 839.2 1309.6 839.2 1311 M 839.2 1317.5 C 839.2 1319.1 839.4 1319.7 839.7 1318.7 C 839.9 1317.8 839.9 1316.4 839.7 1315.7 C 839.4 1315.1 839.2 1315.8 839.2 1317.5 M 839.3 1326.5 C 839.3 1329.8 839.5 1331 839.7 1329.2 C 839.9 1327.4 839.9 1324.7 839.7 1323.2 C 839.5 1321.7 839.3 1323.2 839.3 1326.5 M 1129.9 1324.7 C 1128.6 1326.3 1128.7 1326.4 1130.3 1325.1 C 1131.2 1324.4 1132 1323.6 1132 1323.4 C 1132 1322.6 1131.2 1323.1 1129.9 1324.7 M 839.2 1335.5 C 839.2 1337.1 839.4 1337.7 839.7 1336.7 C 839.9 1335.8 839.9 1334.4 839.7 1333.7 C 839.4 1333.1 839.2 1333.8 839.2 1335.5 M 839.2 1342 C 839.2 1343.4 839.4 1343.9 839.7 1343.2 C 839.9 1342.6 839.9 1341.4 839.7 1340.7 C 839.4 1340.1 839.2 1340.6 839.2 1342 M 1084.9 1371.7 C 1083.6 1373.3 1083.7 1373.4 1085.3 1372.1 C 1086.2 1371.4 1087 1370.6 1087 1370.4 C 1087 1369.6 1086.2 1370.1 1084.9 1371.7 M 1059.4 1398.2 L 1057.5 1400.5 L 1059.8 1398.6 C 1061.9 1396.8 1062.5 1396 1061.7 1396 C 1061.5 1396 1060.5 1397 1059.4 1398.2 M 740.1 1410.6 C 740.1 1411.7 740.4 1412 740.7 1411.2 C 741 1410.5 740.9 1409.6 740.6 1409.3 C 740.3 1408.9 740 1409.5 740.1 1410.6 M 1039.4 1419.2 L 1036.5 1422.5 L 1039.8 1419.6 C 1042.8 1416.8 1043.5 1416 1042.7 1416 C 1042.5 1416 1041.1 1417.5 1039.4 1419.2 M 740.4 1426.5 C 740.4 1431.4 740.5 1433.6 740.7 1431.3 C 740.9 1429 740.9 1424.9 740.7 1422.3 C 740.5 1419.7 740.4 1421.5 740.4 1426.5 M 839.2 1428.5 C 839.2 1430.1 839.4 1430.7 839.7 1429.7 C 839.9 1428.8 839.9 1427.4 839.7 1426.7 C 839.4 1426.1 839.2 1426.8 839.2 1428.5 M 1173.3 1431.7 C 1174.2 1431.9 1175.8 1431.9 1176.8 1431.7 C 1177.7 1431.4 1176.9 1431.2 1175 1431.2 C 1173.1 1431.2 1172.3 1431.4 1173.3 1431.7 M 839.2 1437 C 839.2 1438.4 839.4 1438.9 839.7 1438.2 C 839.9 1437.6 839.9 1436.4 839.7 1435.7 C 839.4 1435.1 839.2 1435.6 839.2 1437 M 1014.9 1444.7 C 1013.6 1446.3 1013.7 1446.4 1015.3 1445.1 C 1016.2 1444.4 1017 1443.6 1017 1443.4 C 1017 1442.6 1016.2 1443.1 1014.9 1444.7 M 839.3 1458 C 839.3 1461 839.5 1462.3 839.7 1460.7 C 839.9 1459.2 839.9 1456.8 839.7 1455.2 C 839.5 1453.7 839.3 1455 839.3 1458 M 740.1 1455.6 C 740.1 1456.7 740.4 1457 740.7 1456.2 C 741 1455.5 740.9 1454.6 740.6 1454.3 C 740.3 1453.9 740 1454.5 740.1 1455.6 M 1128.1 1459.7 C 1128.2 1460.1 1128.1 1460.7 1128 1461 C 1127.3 1462.8 1127.3 1465.1 1128 1465.5 C 1128.4 1465.8 1129 1464.6 1129.2 1462.9 C 1129.5 1461.3 1129.3 1459.7 1128.8 1459.4 C 1128.3 1459.1 1128 1459.2 1128.1 1459.7 M 1223.1 1464.9 C 1222.3 1465.4 1222.2 1466 1222.8 1466.4 C 1223.3 1466.7 1224 1466.3 1224.4 1465.5 C 1225 1463.8 1225 1463.7 1223.1 1464.9 M 990.9 1469.7 L 988.5 1472.5 L 991.3 1470.1 C 992.8 1468.7 994 1467.5 994 1467.3 C 994 1466.5 993.2 1467.2 990.9 1469.7 M 1225.6 1469 C 1226.3 1471.4 1228 1473.3 1228.9 1472.5 C 1229.1 1472.2 1228.8 1471.4 1228.2 1470.7 C 1227.5 1469.9 1227.4 1468.9 1227.8 1468.5 C 1228.2 1468 1228 1468 1227.3 1468.3 C 1226.7 1468.7 1225.9 1468.4 1225.6 1467.8 C 1225.3 1467.1 1225.3 1467.6 1225.6 1469 M 839.4 1494.5 C 839.4 1506 839.6 1510.6 839.7 1504.7 C 839.9 1498.8 839.9 1489.3 839.7 1483.7 C 839.6 1478.1 839.4 1482.9 839.4 1494.5 M 966.9 1494.7 C 965.6 1496.3 965.7 1496.4 967.3 1495.1 C 968.2 1494.4 969 1493.6 969 1493.4 C 969 1492.6 968.2 1493.1 966.9 1494.7 M 944.9 1517.7 L 942.5 1520.5 L 945.3 1518.1 C 946.8 1516.7 948 1515.5 948 1515.3 C 948 1514.5 947.2 1515.2 944.9 1517.7 M 934.2 1522.5 C 934.7 1523 934.1 1524 932.9 1524.8 C 931.8 1525.6 931.1 1526.8 931.4 1527.7 C 931.7 1528.5 931.6 1528.9 931.1 1528.6 C 930 1527.9 924.9 1533 925.5 1534.1 C 925.8 1534.5 925.1 1534.7 923.9 1534.5 C 922.7 1534.3 922 1534.3 922.4 1534.7 C 922.7 1535 922.5 1535.9 921.9 1536.7 C 921.3 1537.4 921.1 1538 921.6 1538 C 922 1538 921.6 1538.6 920.6 1539.3 C 919 1540.5 919 1540.7 920.3 1540.7 C 922.3 1540.7 935.4 1527.2 935.8 1524.8 C 935.9 1523.9 935.5 1522.8 934.8 1522.4 C 934.1 1522 933.8 1522 934.2 1522.5 M 740.2 1530 C 740.2 1531.4 740.4 1531.9 740.7 1531.2 C 740.9 1530.6 740.9 1529.4 740.7 1528.7 C 740.4 1528.1 740.2 1528.6 740.2 1530 M 1061.1 1533.3 C 1060 1534.7 1060.6 1536 1062.3 1536 C 1062.8 1536 1063 1535.4 1062.7 1534.6 C 1062.4 1533.8 1062.6 1532.9 1063.3 1532.6 C 1064.1 1532.3 1064.1 1532.1 1063.4 1532.1 C 1062.8 1532 1061.7 1532.6 1061.1 1533.3 M 1058.8 1538.7 C 1059.5 1539 1060.4 1538.9 1060.7 1538.6 C 1061.1 1538.3 1060.5 1538 1059.4 1538.1 C 1058.3 1538.1 1058 1538.4 1058.8 1538.7 M 1052.3 1543.8 C 1050.2 1545.7 1049.3 1546.7 1050.3 1546 C 1051.6 1545.1 1052 1545 1052 1545.9 C 1052 1546.7 1052.5 1546.6 1053.5 1545.6 C 1054.3 1544.8 1055 1543.6 1055 1543 C 1055 1542.4 1055.4 1542.1 1055.9 1542.4 C 1056.4 1542.7 1057.3 1542.4 1057.9 1541.7 C 1060.2 1538.8 1056.1 1540.4 1052.3 1543.8 M 917.9 1545.7 L 915.5 1548.5 L 918.3 1546.1 C 919.8 1544.7 921 1543.5 921 1543.3 C 921 1542.5 920.2 1543.2 917.9 1545.7 M 740.3 1547.5 C 740.3 1549.7 740.5 1550.5 740.7 1549.2 C 740.9 1548 740.9 1546.2 740.7 1545.2 C 740.4 1544.3 740.2 1545.3 740.3 1547.5 M 740.1 1609.6 C 740.1 1610.7 740.4 1611 740.7 1610.2 C 741 1609.5 740.9 1608.6 740.6 1608.3 C 740.3 1607.9 740 1608.5 740.1 1609.6 M 740.1 1617.6 C 740.1 1618.7 740.4 1619 740.7 1618.2 C 741 1617.5 740.9 1616.6 740.6 1616.3 C 740.3 1615.9 740 1616.5 740.1 1617.6 M 740.3 1629.5 C 740.3 1632.2 740.5 1633.3 740.7 1631.7 C 740.9 1630.2 740.9 1628 740.7 1626.7 C 740.5 1625.5 740.3 1626.7 740.3 1629.5 M 740.3 1643 C 740.3 1645.5 740.5 1646.5 740.7 1645.2 C 740.9 1644 740.9 1642 740.7 1640.7 C 740.5 1639.5 740.3 1640.5 740.3 1643 M 959 1654 C 958.2 1654.5 957.9 1655.2 958.3 1655.6 C 958.7 1656 959.6 1655.8 960.2 1655.2 C 961.7 1653.7 960.9 1652.8 959 1654 M 740.3 1676 C 740.3 1680.7 740.5 1682.6 740.7 1680.2 C 740.9 1677.9 740.9 1674.1 740.7 1671.7 C 740.5 1669.4 740.3 1671.3 740.3 1676 M 740.3 1692.5 C 740.3 1696.9 740.5 1698.6 740.7 1696.2 C 740.9 1693.9 740.9 1690.3 740.7 1688.2 C 740.5 1686.2 740.3 1688.1 740.3 1692.5 M 960.6 1699.8 C 960.3 1700.3 960.7 1700.7 961.5 1700.7 C 962.3 1700.7 963 1700.3 963 1699.8 C 963 1699.4 962.6 1699 962.1 1699 C 961.5 1699 960.9 1699.4 960.6 1699.8 M 963.5 1703 C 963.8 1703.5 964.3 1704 964.6 1704 C 964.8 1704 965 1703.5 965 1703 C 965 1702.4 964.5 1702 963.9 1702 C 963.4 1702 963.2 1702.4 963.5 1703 M 740.2 1725.5 C 740.2 1727.1 740.4 1727.7 740.7 1726.7 C 740.9 1725.8 740.9 1724.4 740.7 1723.7 C 740.4 1723.1 740.2 1723.8 740.2 1725.5 M 740.5 1772 C 740.5 1793.2 740.6 1801.8 740.7 1791.2 C 740.9 1780.7 740.9 1763.3 740.7 1752.7 C 740.6 1742.2 740.5 1750.8 740.5 1772 M 740.4 1835 C 740.4 1845.7 740.6 1850.1 740.7 1844.7 C 740.9 1839.4 740.9 1830.6 740.7 1825.2 C 740.6 1819.9 740.4 1824.3 740.4 1835 M 740.5 1932 C 740.5 1974.6 740.6 1992.1 740.7 1970.7 C 740.9 1949.4 740.9 1914.6 740.7 1893.2 C 740.6 1871.9 740.5 1889.4 740.5 1932 M 1589.5 1969 C 1588.7 1970.2 1590.7 1974 1593.4 1976.3 C 1594.6 1977.3 1595.6 1978.6 1595.6 1979.1 C 1595.7 1979.6 1595.8 1980.5 1595.9 1981.1 C 1596.1 1982.8 1599.3 1981.7 1599.6 1979.7 C 1599.7 1978.8 1599.5 1978.2 1599 1978.5 C 1597.9 1979.2 1595.7 1976.3 1596.5 1975 C 1596.9 1974.4 1596.6 1974.1 1595.8 1974.2 C 1595.1 1974.4 1594.6 1973.9 1594.8 1973.2 C 1594.9 1972.6 1594.5 1972 1593.8 1972 C 1593.2 1972 1592.9 1971.7 1593.3 1971.4 C 1593.6 1971 1593.3 1970.1 1592.5 1969.4 C 1590.9 1967.7 1590.3 1967.7 1589.5 1969 M 1598.7 1983.7 C 1597.6 1984.8 1597.9 1986 1599.3 1986 C 1600.1 1986 1600.7 1985.3 1600.7 1984.5 C 1600.7 1982.9 1599.8 1982.6 1598.7 1983.7 M 1194 2045.3 C 1194 2045.5 1195.5 2046.9 1197.3 2048.6 L 1200.5 2051.5 L 1197.6 2048.2 C 1194.8 2045.2 1194 2044.5 1194 2045.3 M 384.9 2060.2 C 386.8 2062.3 388.6 2063.8 388.8 2063.5 C 389.1 2063.2 389.9 2063.5 390.7 2064.2 C 392.5 2065.6 393.6 2064.5 392.2 2062.7 C 391.5 2061.9 391.3 2061 391.7 2060.6 C 392.1 2060.2 391.3 2060.3 390 2060.8 C 387.9 2061.6 387 2061.3 384.5 2059.1 C 381.9 2056.9 382 2057 384.9 2060.2 M 1588.6 2062.5 C 1587.9 2064.5 1589.2 2065.1 1590.7 2063.5 C 1591.7 2062.5 1591.6 2062.1 1590.5 2061.7 C 1589.8 2061.4 1588.9 2061.8 1588.6 2062.5"/>
  <g fill="#8080aa" stroke-width="0">
    <path d="M422.5 257.5c-15.2 2.9-25.2 8.2-36.6 19.5-8.3 8.3-14.1 16.4-14.3 20.2-.1 1-.7 2.3-1.5 2.7-.7.5-1 1.4-.7 2 .4.6.2 1.1-.5 1.1s-.9.3-.6.7c.4.3.3 1.1-.2 1.7s-1.4 3.5-2 6.4c-1.4 6.7-1.6 1709.8-.2 1710.6.5.3.7 1.5.4 2.6-.3 1.2 0 2 .7 2s1 .7.6 1.5c-.3.8-.2 1.5.3 1.5s.8 1.2.8 2.6c0 5.2 7.4 17.5 15.9 26.3 8.6 9 15.2 13.7 25.5 17.8 13 5.3 14 5.3 141.6 5.3 78.7 0 120.7-.4 125.9-1.1 8.8-1.2 21.2-5.4 23.2-7.8.7-.9 1.1-1 .7-.4-1.3 2.7 11.1-5.6 16.9-11.2 10.5-10.3 18.5-24.9 20.6-37.8 1.4-9 1.4-1707.3-.1-1708.2-.6-.4-.8-1.3-.5-2.1.7-1.9-2.1-10.8-5.5-17.6-2.2-4.4-3.3-5.6-4.6-5.2-1.5.5-1.6.4-.3-.5 1.3-1 1.3-1.3-.2-2.5-1-.7-1.5-1.6-1.1-1.9 1.1-1.2-15.1-16.2-21.7-20-7.2-4.2-15.9-7.2-25.3-8.7-10-1.6-248.4-1.2-257.2.5m-30.8 1803.2c-.4.3-.2 1.2.5 2 1.8 2.2 0 2.8-2.3.7-1.9-1.7-1.9-1.9-.2-2.5 2.4-1 2.8-1 2-.2m949.9-1312c-.1.2-22.9.3-50.7.3-28.1.1-52.4.6-54.9 1.1-5.6 1.2-8 1.6-10.3 1.8-1.1 0-1.5.6-1.1 1.3s.3.8-.5.4c-4.2-2.6-40.9 16.2-47.2 24.3-1 1.3-1.9 2-1.9 1.5 0-.4-2.5 1.6-5.5 4.6-4.3 4.2-5.2 5.7-4.3 6.7.9 1.1.8 1.3-.2 1.1-.8-.2-1.5.3-1.6.9-.3 2.6-.4 2.8-1.2 1.6-.5-.8-12.9 12.5-35.7 38.4-19.3 21.9-43.4 49.3-53.7 61-10.4 11.6-18.8 21.4-18.8 21.6s-1.9 2.4-4.3 4.8c-2.3 2.4-23.8 26.7-47.7 53.9s-55.2 62.7-69.5 78.9c-49.3 55.8-65.7 74.6-66.3 76.1-.3.8-1.3 2.1-2.1 2.8-.9.8-1 1.1-.3.7.6-.3 1.2-.1 1.2.4 0 .6-.4 1.1-1 1.1-.5 0-.9.3-.8.7.4 1.9-2.4 6.5-4.1 7-2.2.6-6.8 10.1-11.1 22.8-4.6 13.5-7.1 28.2-7.8 47-.4 9.3-.7 82.5-.6 162.5.1 146.6.3 155 3.6 155 .5 0 .6.4.3 1-.3.5-.1 1 .4 1 .6 0 1.1.9 1.1 2s.5 2 1 2c.6 0 .9.4.8.9-.6 1.8 7 10.5 12.7 14.6 9.2 6.6 16.9 8.8 28.5 8.3 7.7-.4 10.7-1 15.8-3.3 4.3-1.9 5.9-3.1 5-3.6q-1.35-.9 1.2-.9c1.9 0 6.3-3.8 18-15.5 8.5-8.5 15.1-15.5 14.6-15.5s-.4-.6.2-1.3c.5-.6.8-2.2.6-3.3-.4-2.5 2-5.2 3.1-3.4.3.5-.1 1-.9 1-1.7 0-2.1 1.2-.9 2.3.8.9 6.3-4.2 6.3-5.7 0-.6-.5-.3-1.1.6-1.3 2.2-2.5 2.3-3.3.2-.4-1.1-.2-1.5.8-1.1.8.3 1.3-.1 1.2-1-.1-1 .8-1.6 2.6-1.7 2.2-.1 2.5.1 1.5 1.3-.7.8 0 .6 1.5-.4 3.9-2.9 26.3-26.7 26-27.7-.1-.4.2-.7.7-.6.8.3 11.4-10.5 55.5-56.7 11.6-12.1 27.1-28.3 34.6-35.9 7.4-7.6 13-13.6 12.4-13.3s5.7-6.3 14-14.6c16.2-16.4 58.1-60.5 70.8-74.5 4.3-4.7 7.5-9 7.1-9.5-.3-.6-.1-.7.5-.4.6.4 15.8-15.7 34.9-37 18.6-20.8 36.5-40.7 39.8-44.3s24.3-26.8 46.6-51.5c22.3-24.8 47.7-52.9 56.4-62.5s19-21.1 23-25.5c3.9-4.4 17.3-19.3 29.6-33 12.4-13.8 42.6-47.5 67.3-75 54.5-60.9 52-58.2 56.4-62.8 2-2 3.4-3.7 3.2-3.7-.3 0 3.2-3.9 7.8-8.7 8.8-9.3 11.2-12.5 9-12.1-.7.2-1.3-.8-1.3-2.5-.1-1.5.3-2.7.8-2.7.4 0 .5-.5.1-1.2-.5-.8-.2-.9.9-.5 1 .4 1.6.2 1.4-.6-.1-.7.7-1.1 2.1-1 1.5.2 2.1-.1 1.6-.9-.4-.7-.3-.8.4-.4 1.8 1.1 1.5 2.1-1.5 5.8-1.5 1.8-2 2.6-.9 1.8 1-.8 3.8-4.1 6.4-7.3 3.6-4.7 4.5-6.8 4.5-9.8 0-3.4.3-3.9 1.8-3.4s1.7.2 1.2-1.1-.3-1.5.8-.9c1.2.8 1.2.6 0-.8-1.1-1.5-1.1-1.7.1-1.7 1 0 1.9-1.9 2.7-5.3 1.3-6 1.6-25 .4-26.9-.4-.7-.6-2.1-.4-3.2.2-1.2-.1-1.6-1-1.1-.9.6-1.1.2-.7-1.3.4-1.4.2-2-.5-1.5-.6.4-.8-.2-.5-1.5.4-1.2.2-2-.3-1.6-.5.3-1-.1-1-.8-.1-.7-.3-2.3-.4-3.5-.8-7.3-22.5-29-29.6-29.6-1-.1-1.9-.5-1.9-.9s-.7-.5-1.5-.2c-.8.4-1.5.1-1.5-.4 0-1.5-6.4-3.2-9.1-2.5-1.5.4-2 .2-1.5-.5.5-.8-11.1-1.1-43.1-1.2-24.1 0-64.7-.1-90.1-.3-25.5-.1-46.5-.1-46.6 0m212.7 19.2c2 1.9 3.7 4.1 3.7 4.7 0 .7.5 1.4 1.2 1.6 1.5.5.1 2.8-1.8 2.8-.8 0-1.4-.6-1.4-1.3 0-.6-1.6-2.8-3.5-4.8s-3.1-3.9-2.8-4.3c.4-.3-.1-.6-.9-.6-1.7 0-3.1-2.4-2.1-3.4.7-.7 2.4.5 7.6 5.3m-374.5 11.6c-.3.3-.9-.2-1.2-1.2-.6-1.4-.5-1.5.5-.6.7.7 1 1.5.7 1.8m-2.4 2.2c-.3 1.2-1.2 2.4-2 2.7-1.2.5-1.1 0 .2-2.4q3-4.95 1.8-.3m-241.6 743.1c-.4 2.4-13.5 15.9-15.5 15.9-1.3 0-1.3-.2.3-1.4 1-.7 1.4-1.3 1-1.3-.5 0-.3-.6.3-1.3.6-.8.8-1.7.5-2-.4-.4.3-.4 1.5-.2s1.9 0 1.6-.4c-.6-1.1 4.5-6.2 5.6-5.5.5.3.6-.1.3-.9-.3-.9.4-2.1 1.5-2.9 1.2-.8 1.8-1.8 1.3-2.3-.4-.5-.1-.5.6-.1s1.1 1.5 1 2.4m227.7-92.1c-5.9 1.5-12.5 4.6-11.8 5.5.4.7 0 .9-1 .5-1-.3-1.7-.2-1.7.3 0 .6.5 1 1 1 1.8 0 .6 3.4-1.9 5.4-1.3 1.1-4 2-6 2.1-3 .1-3.6.5-3.4 2.2.2 1.6-.3 2-2.4 2-1.9 0-3.6 1.3-6.2 4.4-3.3 4-26.9 30.7-34.4 38.9-1.8 1.9-3.1 3.8-3 4.2.1.3-2 2.5-4.7 4.8-2.8 2.3-5 4.8-5 5.6 0 .7-.9 1.8-1.9 2.3-2.5 1.4-14.7 16-14.3 17.3.1.5-.2.7-.7.4s-1.4.1-2.1.9-1 1.5-.7 1.5-2 2.5-5.1 5.6c-3.2 3.1-5.1 5.3-4.4 4.9s1.2 0 1.2 1c0 1.1-.5 1.5-1.4 1.2-1.5-.6-5.3 2.8-3.9 3.5.4.3.3.3-.4.2-1.8-.4-55.1 59-54.5 60.8.1.5-.1.7-.6.4-1-.6-5.8 5.4-5.4 6.7q.15.75-.6.3c-1.6-.9-11.6 11-11.7 13.9 0 .5-.7 1-1.6 1-2.3 0-9.5 8.7-12.9 15.6-3.2 6.3-3.6 7.4-2 6.4.6-.3 1-.1 1 .5s-.7 1.3-1.5 1.6c-2.6 1-4 7.6-4 18.9 0 17.3 3.1 25.3 19.3 49 5.3 7.7 17.6 25.9 27.5 40.5s33.2 48.8 51.7 76c50.9 74.9 106 156.1 121 178.5 19.4 29 34.5 43.4 55.5 53.1 10.3 4.7 21.8 8.1 32 9.3 6.1.7 53.8 1.1 148.2 1.1 155.2 0 150.2.2 164-6.7 4.2-2 7-4 6.6-4.6-.3-.5-.1-.7.4-.4 1.5.9 7.9-4 14.3-10.9 5.8-6.3 12.6-17.7 11.5-19.4-.3-.6-.2-1 .4-1s.8-.7.5-1.5c-.4-.8-.2-1.5.4-1.5s.9-.8.8-1.8c-.2-.9.2-2 .8-2.4.7-.5 1.1-5.4 1.1-13.5 0-10.5-.4-14.1-2.2-19.8-2.7-8.6-13.3-26.8-14.8-25.4-.2.3.9 2.2 2.6 4.2 2.6 3.1 2.8 3.8 1.4 4.3-1.8.7-2.6.2-2.9-2-.1-.8-1.1-2.3-2.2-3.3-3.2-2.8-4.7-6.2-3.5-7.7.9-1-2.3-6.1-13.2-21.2-14.1-19.6-61.8-85.1-82.6-113.4-26.2-35.6-101.1-138.4-126.8-174-7.4-10.2-14.1-19-14.9-19.7-.9-.6-1.4-1.3-1.2-1.5s-7.3-10.8-16.7-23.7c-105.3-144.4-109.7-150.4-110.5-149.1-.5.8-1 .9-1.4.2-.3-.6-.1-1.2.6-1.4 1.4-.5-6-11.7-9.4-14.2-1.3-.9-1.6-1.4-.8-1s-.1-.9-1.9-2.9c-3.6-3.9-4.7-4.6-3.5-2.5.3.7-.4.1-1.7-1.3-3.1-3.5-10.1-7.3-16.8-9.3-5.2-1.5-20.9-2.1-25.6-.9m-34.3 30.2c-.2 1.7-.8 2.9-1.2 2.6-.7-.4-.7-2.7 0-4.5.1-.3.2-.9.1-1.3-.1-.5.2-.6.7-.3s.7 1.9.4 3.5m99.6 9.6c-.8.8-2.6-1.1-3.3-3.5-.7-2.5-.7-2.5 1.5.3 1.2 1.5 2.1 3 1.8 3.2M1063 1535c0 .5-.5 1-1.1 1-.5 0-.7-.5-.4-1 .3-.6.8-1 1.1-1 .2 0 .4.4.4 1m-2.3 3.6c-.3.3-1.2.4-1.9.1-.8-.3-.5-.6.6-.6 1.1-.1 1.7.2 1.3.5m-2.8 3.1c-.6.7-1.5 1-2 .7-1.3-.8-.3-2.1 1.5-2.1 1.2 0 1.3.4.5 1.4M963 1700c0 .5-.2 1-.4 1-.3 0-.8-.5-1.1-1-.3-.6-.1-1 .4-1 .6 0 1.1.4 1.1 1m2 3c0 .5-.2 1-.4 1-.3 0-.8-.5-1.1-1-.3-.6-.1-1 .4-1 .6 0 1.1.4 1.1 1m635.7 281.5c0 .8-.6 1.5-1.4 1.5-1.4 0-1.7-1.2-.6-2.3s2-.8 2 .8m-10 79c-1.5 1.6-2.8 1-2.1-1 .3-.7 1.2-1.1 1.9-.8 1.1.4 1.2.8.2 1.8"/>
  </g>
  <path fill="#005580" d="M 1114.9 1340.7 C 1113.6 1342.3 1113.7 1342.4 1115.3 1341.1 C 1116.2 1340.4 1117 1339.6 1117 1339.4 C 1117 1338.6 1116.2 1339.1 1114.9 1340.7 M 1096.9 1359.7 C 1095.6 1361.3 1095.7 1361.4 1097.3 1360.1 C 1098.2 1359.4 1099 1358.6 1099 1358.4 C 1099 1357.6 1098.2 1358.1 1096.9 1359.7 M 1073.9 1383.7 C 1072.6 1385.3 1072.7 1385.4 1074.3 1384.1 C 1075.2 1383.4 1076 1382.6 1076 1382.4 C 1076 1381.6 1075.2 1382.1 1073.9 1383.7 M 1028.9 1430.7 C 1027.6 1432.3 1027.7 1432.4 1029.3 1431.1 C 1030.2 1430.4 1031 1429.6 1031 1429.4 C 1031 1428.6 1030.2 1429.1 1028.9 1430.7 M 978.4 1483.2 L 976.5 1485.5 L 978.8 1483.6 C 980.9 1481.8 981.5 1481 980.7 1481 C 980.5 1481 979.5 1482 978.4 1483.2 M 954.2 1675 C 954.2 1676.9 954.4 1677.7 954.7 1676.7 C 954.9 1675.8 954.9 1674.2 954.7 1673.2 C 954.4 1672.3 954.2 1673.1 954.2 1675"/>
  <path fill="#8080d4" d="M 1176.1 781.4 C 1175.2 782.5 1175.2 783 1176.2 783.6 C 1176.9 784 1177.2 784 1176.8 783.5 C 1176.4 783.1 1176.5 782.1 1177.1 781.3 C 1177.7 780.6 1178 780 1177.7 780 C 1177.5 780 1176.7 780.6 1176.1 781.4 M 1162 794.1 C 1162 794.6 1162.5 794.8 1163 794.5 C 1163.6 794.2 1164 793.7 1164 793.4 C 1164 793.2 1163.6 793 1163 793 C 1162.5 793 1162 793.5 1162 794.1 M 1147.3 1441.2 C 1144.6 1442.5 1144.5 1443.3 1146.4 1444.9 C 1147.5 1445.9 1148.1 1445.6 1149.4 1443.8 C 1152.1 1440 1151.4 1439.2 1147.3 1441.2 M 1148.4 1444.1 C 1148.1 1444.6 1147.4 1444.8 1146.9 1444.4 C 1146.4 1444.1 1146.2 1443.4 1146.6 1442.9 C 1146.9 1442.4 1147.6 1442.2 1148.1 1442.6 C 1148.6 1442.9 1148.8 1443.6 1148.4 1444.1"/>
  <path fill="#80aaaa" d="M 1173.9 780.7 C 1172.6 782.3 1172.7 782.4 1174.3 781.1 C 1175.9 779.8 1176.4 779 1175.6 779 C 1175.4 779 1174.6 779.8 1173.9 780.7 M 1566 784.9 C 1566 785.5 1566.4 786.2 1567 786.5 C 1567.6 786.8 1567.7 786.4 1567.4 785.6 C 1566.7 783.8 1566 783.5 1566 784.9 M 1568.1 790.5 C 1568.2 792.4 1569.9 795.6 1569.9 794 C 1569.9 793.2 1569.5 791.8 1569 791 C 1568.5 790.2 1568.1 789.9 1568.1 790.5 M 1564.2 838.2 L 1564 841.5 L 1565.4 839 C 1566.8 836.6 1566.7 835 1565.2 835 C 1564.8 835 1564.3 836.5 1564.2 838.2 M 861.1 1136.6 C 858.1 1141.3 857.7 1142.9 860 1141.5 C 861.1 1140.8 862.7 1137.4 862.8 1135.6 C 862.8 1135.1 863.4 1134.4 864.1 1133.9 C 864.9 1133.5 865.1 1132.8 864.8 1132.4 C 864.4 1132.1 862.7 1133.9 861.1 1136.6 M 1141.1 1444.9 C 1140.3 1446.4 1140.4 1446.9 1141.8 1447.2 C 1142.7 1447.5 1144.3 1447.4 1145.2 1447.1 C 1146.5 1446.6 1146.6 1446.2 1145.7 1445 C 1143.9 1442.8 1142.2 1442.8 1141.1 1444.9 M 1136.6 1449.9 C 1136.2 1450.4 1136.4 1451.1 1136.9 1451.4 C 1137.4 1451.8 1138.1 1451.6 1138.4 1451.1 C 1138.8 1450.6 1138.6 1449.9 1138.1 1449.6 C 1137.6 1449.2 1136.9 1449.4 1136.6 1449.9 M 1089.9 1501.7 L 1087.5 1504.5 L 1090.3 1502.1 C 1091.8 1500.7 1093 1499.5 1093 1499.3 C 1093 1498.5 1092.2 1499.2 1089.9 1501.7 M 947.9 1507.8 C 947 1508.8 946.6 1510.2 946.8 1510.9 C 947.1 1511.7 946.8 1512 946.2 1511.6 C 945.6 1511.3 944.8 1511.5 944.4 1512.1 C 943.9 1513 944.5 1513.1 946.4 1512.6 C 948.5 1512.1 949 1512.2 948.4 1513.2 C 948 1513.9 949.6 1512.7 951.9 1510.5 C 954.1 1508.4 956 1506.5 956 1506.4 C 956 1506.3 955.2 1506.3 954.3 1506.5 C 953.3 1506.7 952.2 1506.9 951.8 1506.9 C 951.3 1507 951 1507.9 951 1509 C 951 1510.3 950.5 1510.8 949.5 1510.4 C 948.3 1509.9 948.2 1509.5 949.1 1508.4 C 949.8 1507.6 950.1 1506.8 949.8 1506.5 C 949.6 1506.3 948.7 1506.9 947.9 1507.8 M 943.5 1515.7 C 943.6 1516.7 943.3 1518.2 942.7 1519 C 942.1 1519.8 942.8 1519.4 944.3 1518.1 C 945.8 1516.7 947 1515.4 947 1515.2 C 947 1514.9 946.7 1515 946.3 1515.3 C 946 1515.7 945.1 1515.5 944.4 1514.9 C 943.5 1514.2 943.2 1514.3 943.5 1515.7 M 908.8 1551.7 C 909.5 1552 910.4 1551.9 910.7 1551.6 C 911.1 1551.3 910.5 1551 909.4 1551.1 C 908.3 1551.1 908 1551.4 908.8 1551.7 M 974.5 1630.1 C 973.5 1631.6 974.8 1632.6 976.1 1631.3 C 976.8 1630.6 976.8 1630 976.2 1629.6 C 975.6 1629.3 974.8 1629.5 974.5 1630.1"/>
</svg>